# xmcd
#
# Track frame offsets:
#	150
#	14852
#	30617
#	50532
#	66378
#	86023
#	104465
#	124918
#	138839
#	161936
#	180524
#	202730
#	214501
#	235547
#	253904
#
# Disc length: 3624 seconds
#
# Revision: 1
# Processed by: cddbd v1.5.2PL0 Copyright (c) Steve Scherf et al.
# Submitted via: audiograbber 1.83.01
#
DISCID=d50e260f
DTITLE=Jenny Wilson - Love And Youth
DYEAR=2005
DGENRE=Indie
TTITLE0=Crazy Summer
TTITLE1=Summer Time- The Roughest Time
TTITLE2=Let My Shoes Lead Me Forward
TTITLE3=Those Winters
TTITLE4=Bitter? No I Just Love To Complain
TTITLE5=Would I Play With My Band?
TTITLE6=Love And Youth
TTITLE7=A Hesitating Cloud Of Despair
TTITLE8=Love Ain't Just A Four Letter Word
TTITLE9=Common Around Here
TTITLE10=Hey, What's The Matter?
TTITLE11=Balcony Smoker
TTITLE12=A Brief Story
TTITLE13=Let My Shoes Lead Me Forward (The Knife Remix)
TTITLE14=Let My Shoes Lead Me Forward (Joachime Remix)
EXTD=
EXTT0=
EXTT1=
EXTT2=
EXTT3=
EXTT4=
EXTT5=
EXTT6=
EXTT7=
EXTT8=
EXTT9=
EXTT10=
EXTT11=
EXTT12=
EXTT13=
EXTT14=
PLAYORDER=
